# xmcd
#
# Track frame offsets: 
#        150
#        13795
#        39481
#        48503
#        73416
#        93150
#        118954
#        128564
#        151579
#        161629
#
# Disc length: 2494 seconds
#
# Revision: 2
# Processed by: cddbd v1.5.2PL0 Copyright (c) Steve Scherf et al.
# Submitted via: ExactAudioCopy v1.2
#
DISCID=7f09bc0a
DTITLE=Saltus - Słowiańska Duma
DYEAR=1999
DGENRE=Metal
TTITLE0=Krew i Honor
TTITLE1=W Krainie Cienia
TTITLE2=…ku Chwale Nocy
TTITLE3=Wielki Las
TTITLE4=Otuleni Przez Zimowe Wichry
TTITLE5=Wrota Nocy
TTITLE6=Kiedy Krzyże Płomień Pochłonie
TTITLE7=Słowiańska Duma
TTITLE8=Pośród Starych Borów
TTITLE9=Wielki Las [Live]
EXTD=
EXTT0=
EXTT1=
EXTT2=
EXTT3=
EXTT4=
EXTT5=
EXTT6=
EXTT7=
EXTT8=
EXTT9=
PLAYORDER=
